<svg width="100" height="91" viewBox="0 0 100 91" fill="none" xmlns="http://www.w3.org/2000/svg">
  <path d="M13.615 90.8365C13.55 90.8365 13.49 90.8365 13.42 90.8315C11.845 90.7515 10.3 90.4115 8.83001 89.8165C1.59501 86.8765 -1.89499 78.6115 1.04001 71.3815L37.645 7.25154C38.905 4.97154 40.815 3.06154 43.145 1.77154C49.97 -2.00846 58.6 0.476537 62.375 7.29654L98.74 70.9365C99.55 72.8415 99.895 74.3915 99.98 75.9715C100.175 79.7515 98.885 83.3765 96.355 86.1815C93.825 88.9865 90.35 90.6415 86.575 90.8315L13.975 90.8365H13.615Z" fill="#D6E4FF"/>
    <g transform="translate(45, 30)">
    <path fill-rule="evenodd" clip-rule="evenodd" d="M0.625317 5.10406C0.625317 2.69406 2.59032 0.729065 5.00032 0.729065C7.41032 0.729065 9.37532 2.69406 9.37532 5.10406V19.2441C9.37532 21.6591 7.41032 23.6191 5.00032 23.6191C2.59032 23.6191 0.625317 21.6591 0.625317 19.2441V5.10406ZM0.625 36.3495C0.625 33.9245 2.59 31.9495 5 31.9495C7.41 31.9495 9.375 33.8995 9.375 36.2945C9.375 38.7595 7.41 40.7245 5 40.7245C2.59 40.7245 0.625 38.7595 0.625 36.3495Z" fill="#200E32"/>
  </g>
</svg>
