<svg width="76" height="36" viewBox="0 0 76 36" fill="none" xmlns="http://www.w3.org/2000/svg">
<rect class="button-background" width="76" height="36" rx="5"/>
<path fill-rule="evenodd" clip-rule="evenodd" d="M16.312 17.3035C16.1122 17.4882 16 17.7388 16 18C16 18.2612 16.1122 18.5118 16.312 18.6965L21.2066 23.2213C21.4051 23.4011 21.6724 23.5013 21.9503 23.5C22.2283 23.4987 22.4945 23.396 22.691 23.2143C22.8875 23.0326 22.9986 22.7866 23 22.5296C23.0014 22.2727 22.893 22.0256 22.6985 21.8421L18.5424 18L22.6985 14.1579C22.893 13.9744 23.0014 13.7273 23 13.4704C22.9986 13.2134 22.8875 12.9674 22.691 12.7857C22.4945 12.604 22.2283 12.5013 21.9503 12.5C21.6724 12.4987 21.4051 12.5989 21.2066 12.7787L16.312 17.3035Z" fill="#7E839A"/>
<path d="M37.594 13.242V14.278H33.352V17.568H36.796V18.604H33.352V23H32.078V13.242H37.594ZM39.7907 14.082C39.548 14.082 39.3427 13.998 39.1747 13.83C39.0067 13.662 38.9227 13.4567 38.9227 13.214C38.9227 12.9713 39.0067 12.766 39.1747 12.598C39.3427 12.43 39.548 12.346 39.7907 12.346C40.024 12.346 40.22 12.43 40.3787 12.598C40.5467 12.766 40.6307 12.9713 40.6307 13.214C40.6307 13.4567 40.5467 13.662 40.3787 13.83C40.22 13.998 40.024 14.082 39.7907 14.082ZM40.4067 15.328V23H39.1327V15.328H40.4067ZM43.852 16.574C44.076 16.1353 44.3933 15.7947 44.804 15.552C45.224 15.3093 45.7327 15.188 46.33 15.188V16.504H45.994C44.566 16.504 43.852 17.2787 43.852 18.828V23H42.578V15.328H43.852V16.574ZM50.5167 23.126C49.9287 23.126 49.4013 23.028 48.9347 22.832C48.468 22.6267 48.0993 22.3467 47.8287 21.992C47.558 21.628 47.4087 21.2127 47.3807 20.746H48.6967C48.734 21.1287 48.9113 21.4413 49.2287 21.684C49.5553 21.9267 49.98 22.048 50.5027 22.048C50.988 22.048 51.3707 21.9407 51.6507 21.726C51.9307 21.5113 52.0707 21.2407 52.0707 20.914C52.0707 20.578 51.9213 20.3307 51.6227 20.172C51.324 20.004 50.862 19.8407 50.2367 19.682C49.6673 19.5327 49.2007 19.3833 48.8367 19.234C48.482 19.0753 48.174 18.8467 47.9127 18.548C47.6607 18.24 47.5347 17.8387 47.5347 17.344C47.5347 16.952 47.6513 16.5927 47.8847 16.266C48.118 15.9393 48.4493 15.6827 48.8787 15.496C49.308 15.3 49.798 15.202 50.3487 15.202C51.198 15.202 51.884 15.4167 52.4067 15.846C52.9293 16.2753 53.2093 16.8633 53.2467 17.61H51.9727C51.9447 17.2087 51.7813 16.8867 51.4827 16.644C51.1933 16.4013 50.8013 16.28 50.3067 16.28C49.8493 16.28 49.4853 16.378 49.2147 16.574C48.944 16.77 48.8087 17.0267 48.8087 17.344C48.8087 17.596 48.888 17.806 49.0467 17.974C49.2147 18.1327 49.42 18.2633 49.6627 18.366C49.9147 18.4593 50.26 18.5667 50.6987 18.688C51.2493 18.8373 51.6973 18.9867 52.0427 19.136C52.388 19.276 52.682 19.4907 52.9247 19.78C53.1767 20.0693 53.3073 20.4473 53.3167 20.914C53.3167 21.334 53.2 21.712 52.9667 22.048C52.7333 22.384 52.402 22.65 51.9727 22.846C51.5527 23.0327 51.0673 23.126 50.5167 23.126ZM56.6691 16.378V20.9C56.6691 21.2733 56.7484 21.5393 56.9071 21.698C57.0658 21.8473 57.3411 21.922 57.7331 21.922H58.6711V23H57.5231C56.8138 23 56.2818 22.8367 55.9271 22.51C55.5724 22.1833 55.3951 21.6467 55.3951 20.9V16.378H54.4011V15.328H55.3951V13.396H56.6691V15.328H58.6711V16.378H56.6691Z" fill="#18181B"/>
</svg>
