<svg width="75" height="36" viewBox="0 0 75 36" fill="none" xmlns="http://www.w3.org/2000/svg">
<rect class="button-background" width="75" height="36" rx="5"/>
<path d="M18.352 21.964H21.768V23H17.078V13.242H18.352V21.964ZM22.645 19.136C22.645 18.352 22.8036 17.666 23.121 17.078C23.4383 16.4807 23.8723 16.0187 24.423 15.692C24.983 15.3653 25.6036 15.202 26.285 15.202C26.957 15.202 27.5403 15.3467 28.035 15.636C28.5296 15.9253 28.8983 16.2893 29.141 16.728V15.328H30.429V23H29.141V21.572C28.889 22.02 28.511 22.3933 28.007 22.692C27.5123 22.9813 26.9336 23.126 26.271 23.126C25.5896 23.126 24.9736 22.958 24.423 22.622C23.8723 22.286 23.4383 21.8147 23.121 21.208C22.8036 20.6013 22.645 19.9107 22.645 19.136ZM29.141 19.15C29.141 18.5713 29.0243 18.0673 28.791 17.638C28.5576 17.2087 28.2403 16.882 27.839 16.658C27.447 16.4247 27.013 16.308 26.537 16.308C26.061 16.308 25.627 16.42 25.235 16.644C24.843 16.868 24.5303 17.1947 24.297 17.624C24.0636 18.0533 23.947 18.5573 23.947 19.136C23.947 19.724 24.0636 20.2373 24.297 20.676C24.5303 21.1053 24.843 21.4367 25.235 21.67C25.627 21.894 26.061 22.006 26.537 22.006C27.013 22.006 27.447 21.894 27.839 21.67C28.2403 21.4367 28.5576 21.1053 28.791 20.676C29.0243 20.2373 29.141 19.7287 29.141 19.15ZM35.2979 23.126C34.7099 23.126 34.1826 23.028 33.7159 22.832C33.2492 22.6267 32.8806 22.3467 32.6099 21.992C32.3392 21.628 32.1899 21.2127 32.1619 20.746H33.4779C33.5152 21.1287 33.6926 21.4413 34.0099 21.684C34.3366 21.9267 34.7612 22.048 35.2839 22.048C35.7692 22.048 36.1519 21.9407 36.4319 21.726C36.7119 21.5113 36.8519 21.2407 36.8519 20.914C36.8519 20.578 36.7026 20.3307 36.4039 20.172C36.1052 20.004 35.6432 19.8407 35.0179 19.682C34.4486 19.5327 33.9819 19.3833 33.6179 19.234C33.2632 19.0753 32.9552 18.8467 32.6939 18.548C32.4419 18.24 32.3159 17.8387 32.3159 17.344C32.3159 16.952 32.4326 16.5927 32.6659 16.266C32.8992 15.9393 33.2306 15.6827 33.6599 15.496C34.0892 15.3 34.5792 15.202 35.1299 15.202C35.9792 15.202 36.6652 15.4167 37.1879 15.846C37.7106 16.2753 37.9906 16.8633 38.0279 17.61H36.7539C36.7259 17.2087 36.5626 16.8867 36.2639 16.644C35.9746 16.4013 35.5826 16.28 35.0879 16.28C34.6306 16.28 34.2666 16.378 33.9959 16.574C33.7252 16.77 33.5899 17.0267 33.5899 17.344C33.5899 17.596 33.6692 17.806 33.8279 17.974C33.9959 18.1327 34.2012 18.2633 34.4439 18.366C34.6959 18.4593 35.0412 18.5667 35.4799 18.688C36.0306 18.8373 36.4786 18.9867 36.8239 19.136C37.1692 19.276 37.4632 19.4907 37.7059 19.78C37.9579 20.0693 38.0886 20.4473 38.0979 20.914C38.0979 21.334 37.9812 21.712 37.7479 22.048C37.5146 22.384 37.1832 22.65 36.7539 22.846C36.3339 23.0327 35.8486 23.126 35.2979 23.126ZM41.4504 16.378V20.9C41.4504 21.2733 41.5297 21.5393 41.6884 21.698C41.847 21.8473 42.1224 21.922 42.5144 21.922H43.4524V23H42.3044C41.595 23 41.063 22.8367 40.7084 22.51C40.3537 22.1833 40.1764 21.6467 40.1764 20.9V16.378H39.1824V15.328H40.1764V13.396H41.4504V15.328H43.4524V16.378H41.4504Z" fill="#333333"/>
<path fill-rule="evenodd" clip-rule="evenodd" d="M58.688 17.3035C58.8878 17.4882 59 17.7388 59 18C59 18.2612 58.8878 18.5118 58.688 18.6965L53.7934 23.2213C53.5949 23.4011 53.3276 23.5013 53.0497 23.5C52.7717 23.4987 52.5055 23.396 52.309 23.2143C52.1125 23.0326 52.0014 22.7866 52 22.5296C51.9986 22.2727 52.107 22.0256 52.3015 21.8421L56.4576 18L52.3015 14.1579C52.107 13.9744 51.9986 13.7273 52 13.4704C52.0014 13.2134 52.1125 12.9674 52.309 12.7857C52.5055 12.604 52.7717 12.5013 53.0497 12.5C53.3276 12.4987 53.5949 12.5989 53.7934 12.7787L58.688 17.3035Z" fill="#0044CC"/>
</svg>
