<svg width="38" height="24" viewBox="0 0 38 24" fill="none" xmlns="http://www.w3.org/2000/svg">
<rect class="button-background" y="0.5" width="38" height="23" rx="5"/>
<path fill-rule="evenodd" clip-rule="evenodd" d="M12.2229 11.4935C12.0802 11.6278 12 11.81 12 12C12 12.19 12.0802 12.3722 12.2229 12.5065L15.719 15.7973C15.8608 15.9281 16.0517 16.0009 16.2502 16C16.4488 15.999 16.6389 15.9244 16.7793 15.7923C16.9197 15.6601 16.999 15.4812 17 15.2943C17.001 15.1074 16.9236 14.9277 16.7846 14.7942L13.816 12L16.7846 9.20577C16.9236 9.0723 17.001 8.8926 17 8.70572C16.999 8.51885 16.9197 8.33989 16.7793 8.20775C16.6389 8.07561 16.4488 8.00095 16.2502 8.00001C16.0517 7.99907 15.8608 8.07191 15.719 8.20271L12.2229 11.4935Z" fill="#7E839A"/>
<path fill-rule="evenodd" clip-rule="evenodd" d="M21.2229 11.4935C21.0802 11.6278 21 11.81 21 12C21 12.19 21.0802 12.3722 21.2229 12.5065L24.719 15.7973C24.8608 15.9281 25.0517 16.0009 25.2502 16C25.4488 15.999 25.6389 15.9244 25.7793 15.7923C25.9197 15.6601 25.999 15.4812 26 15.2943C26.001 15.1074 25.9236 14.9277 25.7846 14.7942L22.816 12L25.7846 9.20577C25.9236 9.0723 26.001 8.8926 26 8.70572C25.999 8.51885 25.9197 8.33989 25.7793 8.20775C25.6389 8.07561 25.4488 8.00095 25.2502 8.00001C25.0517 7.99907 24.8608 8.07191 24.719 8.20271L21.2229 11.4935Z" fill="#7E839A"/>
</svg>
