<svg width="29" height="24" viewBox="0 0 29 24" fill="none" xmlns="http://www.w3.org/2000/svg">
<rect width="29" height="24" rx="5" fill="#D6E4FF"/>
<path fill-rule="evenodd" clip-rule="evenodd" d="M16.7771 11.4935C16.9198 11.6278 17 11.81 17 12C17 12.19 16.9198 12.3722 16.7771 12.5065L13.281 15.7973C13.1392 15.9281 12.9483 16.0009 12.7498 16C12.5512 15.999 12.3611 15.9244 12.2207 15.7923C12.0803 15.6601 12.001 15.4812 12 15.2943C11.999 15.1074 12.0764 14.9277 12.2154 14.7942L15.184 12L12.2154 9.20577C12.0764 9.0723 11.999 8.8926 12 8.70572C12.001 8.51885 12.0803 8.33989 12.2207 8.20775C12.3611 8.07561 12.5512 8.00095 12.7498 8.00001C12.9483 7.99907 13.1392 8.07191 13.281 8.20271L16.7771 11.4935Z" fill="#0044CC"/>
</svg>
