<svg width="78" height="36" viewBox="0 0 78 36" fill="none" xmlns="http://www.w3.org/2000/svg">
<rect width="78" height="36" rx="5" fill="#D6E4FF"/>
<path d="M24.75 23H23.476L18.352 15.23V23H17.078V13.228H18.352L23.476 20.984V13.228H24.75V23ZM33.9218 18.87C33.9218 19.1127 33.9078 19.3693 33.8798 19.64H27.7478C27.7944 20.396 28.0511 20.9887 28.5178 21.418C28.9938 21.838 29.5678 22.048 30.2398 22.048C30.7904 22.048 31.2478 21.922 31.6118 21.67C31.9851 21.4087 32.2464 21.0633 32.3958 20.634H33.7678C33.5624 21.3713 33.1518 21.9733 32.5358 22.44C31.9198 22.8973 31.1544 23.126 30.2398 23.126C29.5118 23.126 28.8584 22.9627 28.2798 22.636C27.7104 22.3093 27.2624 21.8473 26.9358 21.25C26.6091 20.6433 26.4458 19.9433 26.4458 19.15C26.4458 18.3567 26.6044 17.6613 26.9218 17.064C27.2391 16.4667 27.6824 16.0093 28.2518 15.692C28.8304 15.3653 29.4931 15.202 30.2398 15.202C30.9678 15.202 31.6118 15.3607 32.1718 15.678C32.7318 15.9953 33.1611 16.434 33.4598 16.994C33.7678 17.5447 33.9218 18.17 33.9218 18.87ZM32.6058 18.604C32.6058 18.1187 32.4984 17.7033 32.2838 17.358C32.0691 17.0033 31.7751 16.7373 31.4018 16.56C31.0378 16.3733 30.6318 16.28 30.1838 16.28C29.5398 16.28 28.9891 16.4853 28.5318 16.896C28.0838 17.3067 27.8271 17.876 27.7618 18.604H32.6058ZM39.6074 23L37.7874 20.144L36.0374 23H34.7074L37.1854 19.192L34.7074 15.328H36.1494L37.9694 18.17L39.7054 15.328H41.0354L38.5714 19.122L41.0494 23H39.6074ZM43.8566 16.378V20.9C43.8566 21.2733 43.9359 21.5393 44.0946 21.698C44.2533 21.8473 44.5286 21.922 44.9206 21.922H45.8586V23H44.7106C44.0013 23 43.4693 22.8367 43.1146 22.51C42.7599 22.1833 42.5826 21.6467 42.5826 20.9V16.378H41.5886V15.328H42.5826V13.396H43.8566V15.328H45.8586V16.378H43.8566Z" fill="#333333"/>
<path fill-rule="evenodd" clip-rule="evenodd" d="M61.688 17.3035C61.8878 17.4882 62 17.7388 62 18C62 18.2612 61.8878 18.5118 61.688 18.6965L56.7934 23.2213C56.5949 23.4011 56.3276 23.5013 56.0497 23.5C55.7717 23.4987 55.5055 23.396 55.309 23.2143C55.1125 23.0326 55.0014 22.7866 55 22.5296C54.9986 22.2727 55.107 22.0256 55.3015 21.8421L59.4576 18L55.3015 14.1579C55.107 13.9744 54.9986 13.7273 55 13.4704C55.0014 13.2134 55.1125 12.9674 55.309 12.7857C55.5055 12.604 55.7717 12.5013 56.0497 12.5C56.3276 12.4987 56.5949 12.5989 56.7934 12.7787L61.688 17.3035Z" fill="#0044CC"/>
</svg>
