<svg width="7" height="11" viewBox="0 0 7 11" fill="none" xmlns="http://www.w3.org/2000/svg">
  <path
    d="M0.312 5.3035C0.1122 5.4882 0 5.7388 0 6C0 6.2612 0.1122 6.5118 0.312 6.6965L5.207 11.2213C5.4051 11.4011 5.6724 11.5013 5.9503 11.5C6.2283 11.4987 6.4945 11.396 6.691 11.2143C6.8875 11.0326 6.9986 10.7866 7 10.5296C7.0014 10.2727 6.893 10.0256 6.6985 9.8421L2.542 6L6.6985 2.1579C6.893 1.9744 7.0014 1.7273 7 1.4704C6.9986 1.2134 6.8875 0.967353 6.691 0.785657C6.4945 0.60396 6.2283 0.50131 5.9503 0.500012C5.6724 0.498715 5.4051 0.598874 5.207 0.778726L0.312 5.3035Z"
    class="arrow-path"
  />
</svg>
