<svg width="29" height="24" viewBox="0 0 29 24" fill="none" xmlns="http://www.w3.org/2000/svg">
<rect class="button-background" y="0.5" width="29" height="23" rx="5"/>
<path fill-rule="evenodd" clip-rule="evenodd" d="M12.2229 11.4935C12.0802 11.6278 12 11.81 12 12C12 12.19 12.0802 12.3722 12.2229 12.5065L15.719 15.7973C15.8608 15.9281 16.0517 16.0009 16.2502 16C16.4488 15.999 16.6389 15.9244 16.7793 15.7923C16.9197 15.6601 16.999 15.4812 17 15.2943C17.001 15.1074 16.9236 14.9277 16.7846 14.7942L13.816 12L16.7846 9.20577C16.9236 9.0723 17.001 8.8926 17 8.70572C16.999 8.51885 16.9197 8.33989 16.7793 8.20775C16.6389 8.07561 16.4488 8.00095 16.2502 8.00001C16.0517 7.99907 15.8608 8.07191 15.719 8.20271L12.2229 11.4935Z" fill="#7E839A"/>
</svg>
