<svg width="106" height="36" viewBox="0 0 106 36" fill="none" xmlns="http://www.w3.org/2000/svg">
<rect class="button-background" width="106" height="36" rx="5"/>
<path fill-rule="evenodd" clip-rule="evenodd" d="M16.312 17.3035C16.1122 17.4882 16 17.7388 16 18C16 18.2612 16.1122 18.5118 16.312 18.6965L21.2066 23.2213C21.4051 23.4011 21.6724 23.5013 21.9503 23.5C22.2283 23.4987 22.4945 23.396 22.691 23.2143C22.8875 23.0326 22.9986 22.7866 23 22.5296C23.0014 22.2727 22.893 22.0256 22.6985 21.8421L18.5424 18L22.6985 14.1579C22.893 13.9744 23.0014 13.7273 23 13.4704C22.9986 13.2134 22.8875 12.9674 22.691 12.7857C22.4945 12.604 22.2283 12.5013 21.9503 12.5C21.6724 12.4987 21.4051 12.5989 21.2066 12.7787L16.312 17.3035Z" fill="#7E839A"/>
<path d="M38.602 16.098C38.602 16.91 38.322 17.5867 37.762 18.128C37.2113 18.66 36.3667 18.926 35.228 18.926H33.352V23H32.078V13.242H35.228C36.3293 13.242 37.1647 13.508 37.734 14.04C38.3127 14.572 38.602 15.258 38.602 16.098ZM35.228 17.876C35.9373 17.876 36.46 17.722 36.796 17.414C37.132 17.106 37.3 16.6673 37.3 16.098C37.3 14.894 36.6093 14.292 35.228 14.292H33.352V17.876H35.228ZM41.4594 16.574C41.6834 16.1353 42.0008 15.7947 42.4114 15.552C42.8314 15.3093 43.3401 15.188 43.9374 15.188V16.504H43.6014C42.1734 16.504 41.4594 17.2787 41.4594 18.828V23H40.1854V15.328H41.4594V16.574ZM52.4081 18.87C52.4081 19.1127 52.3941 19.3693 52.3661 19.64H46.2341C46.2807 20.396 46.5374 20.9887 47.0041 21.418C47.4801 21.838 48.0541 22.048 48.7261 22.048C49.2767 22.048 49.7341 21.922 50.0981 21.67C50.4714 21.4087 50.7327 21.0633 50.8821 20.634H52.2541C52.0487 21.3713 51.6381 21.9733 51.0221 22.44C50.4061 22.8973 49.6407 23.126 48.7261 23.126C47.9981 23.126 47.3447 22.9627 46.7661 22.636C46.1967 22.3093 45.7487 21.8473 45.4221 21.25C45.0954 20.6433 44.9321 19.9433 44.9321 19.15C44.9321 18.3567 45.0907 17.6613 45.4081 17.064C45.7254 16.4667 46.1687 16.0093 46.7381 15.692C47.3167 15.3653 47.9794 15.202 48.7261 15.202C49.4541 15.202 50.0981 15.3607 50.6581 15.678C51.2181 15.9953 51.6474 16.434 51.9461 16.994C52.2541 17.5447 52.4081 18.17 52.4081 18.87ZM51.0921 18.604C51.0921 18.1187 50.9847 17.7033 50.7701 17.358C50.5554 17.0033 50.2614 16.7373 49.8881 16.56C49.5241 16.3733 49.1181 16.28 48.6701 16.28C48.0261 16.28 47.4754 16.4853 47.0181 16.896C46.5701 17.3067 46.3134 17.876 46.2481 18.604H51.0921ZM56.9457 21.824L59.3257 15.328H60.6837L57.6737 23H56.1897L53.1797 15.328H54.5517L56.9457 21.824ZM62.5954 14.082C62.3527 14.082 62.1474 13.998 61.9794 13.83C61.8114 13.662 61.7274 13.4567 61.7274 13.214C61.7274 12.9713 61.8114 12.766 61.9794 12.598C62.1474 12.43 62.3527 12.346 62.5954 12.346C62.8287 12.346 63.0247 12.43 63.1834 12.598C63.3514 12.766 63.4354 12.9713 63.4354 13.214C63.4354 13.4567 63.3514 13.662 63.1834 13.83C63.0247 13.998 62.8287 14.082 62.5954 14.082ZM63.2114 15.328V23H61.9374V15.328H63.2114ZM68.7287 23.126C68.01 23.126 67.3567 22.9627 66.7687 22.636C66.19 22.3093 65.7327 21.8473 65.3967 21.25C65.07 20.6433 64.9067 19.9433 64.9067 19.15C64.9067 18.366 65.0747 17.6753 65.4107 17.078C65.756 16.4713 66.2227 16.0093 66.8107 15.692C67.3987 15.3653 68.0567 15.202 68.7847 15.202C69.5127 15.202 70.1707 15.3653 70.7587 15.692C71.3467 16.0093 71.8087 16.4667 72.1447 17.064C72.49 17.6613 72.6627 18.3567 72.6627 19.15C72.6627 19.9433 72.4854 20.6433 72.1307 21.25C71.7854 21.8473 71.314 22.3093 70.7167 22.636C70.1194 22.9627 69.4567 23.126 68.7287 23.126ZM68.7287 22.006C69.186 22.006 69.6154 21.8987 70.0167 21.684C70.418 21.4693 70.74 21.1473 70.9827 20.718C71.2347 20.2887 71.3607 19.766 71.3607 19.15C71.3607 18.534 71.2394 18.0113 70.9967 17.582C70.754 17.1527 70.4367 16.8353 70.0447 16.63C69.6527 16.4153 69.228 16.308 68.7707 16.308C68.304 16.308 67.8747 16.4153 67.4827 16.63C67.1 16.8353 66.792 17.1527 66.5587 17.582C66.3254 18.0113 66.2087 18.534 66.2087 19.15C66.2087 19.7753 66.3207 20.3027 66.5447 20.732C66.778 21.1613 67.086 21.4833 67.4687 21.698C67.8514 21.9033 68.2714 22.006 68.7287 22.006ZM81.1418 15.328V23H79.8678V21.866C79.6251 22.258 79.2844 22.566 78.8458 22.79C78.4164 23.0047 77.9404 23.112 77.4178 23.112C76.8204 23.112 76.2838 22.9907 75.8078 22.748C75.3318 22.496 74.9538 22.1227 74.6738 21.628C74.4031 21.1333 74.2678 20.5313 74.2678 19.822V15.328H75.5278V19.654C75.5278 20.41 75.7191 20.9933 76.1018 21.404C76.4844 21.8053 77.0071 22.006 77.6698 22.006C78.3511 22.006 78.8878 21.796 79.2798 21.376C79.6718 20.956 79.8678 20.3447 79.8678 19.542V15.328H81.1418ZM86.0088 23.126C85.4208 23.126 84.8935 23.028 84.4268 22.832C83.9602 22.6267 83.5915 22.3467 83.3208 21.992C83.0502 21.628 82.9008 21.2127 82.8728 20.746H84.1888C84.2262 21.1287 84.4035 21.4413 84.7208 21.684C85.0475 21.9267 85.4722 22.048 85.9948 22.048C86.4802 22.048 86.8628 21.9407 87.1428 21.726C87.4228 21.5113 87.5628 21.2407 87.5628 20.914C87.5628 20.578 87.4135 20.3307 87.1148 20.172C86.8162 20.004 86.3542 19.8407 85.7288 19.682C85.1595 19.5327 84.6928 19.3833 84.3288 19.234C83.9742 19.0753 83.6662 18.8467 83.4048 18.548C83.1528 18.24 83.0268 17.8387 83.0268 17.344C83.0268 16.952 83.1435 16.5927 83.3768 16.266C83.6102 15.9393 83.9415 15.6827 84.3708 15.496C84.8002 15.3 85.2902 15.202 85.8408 15.202C86.6902 15.202 87.3762 15.4167 87.8988 15.846C88.4215 16.2753 88.7015 16.8633 88.7388 17.61H87.4648C87.4368 17.2087 87.2735 16.8867 86.9748 16.644C86.6855 16.4013 86.2935 16.28 85.7988 16.28C85.3415 16.28 84.9775 16.378 84.7068 16.574C84.4362 16.77 84.3008 17.0267 84.3008 17.344C84.3008 17.596 84.3802 17.806 84.5388 17.974C84.7068 18.1327 84.9122 18.2633 85.1548 18.366C85.4068 18.4593 85.7522 18.5667 86.1908 18.688C86.7415 18.8373 87.1895 18.9867 87.5348 19.136C87.8802 19.276 88.1742 19.4907 88.4168 19.78C88.6688 20.0693 88.7995 20.4473 88.8088 20.914C88.8088 21.334 88.6922 21.712 88.4588 22.048C88.2255 22.384 87.8942 22.65 87.4648 22.846C87.0448 23.0327 86.5595 23.126 86.0088 23.126Z" fill="#18181B"/>
</svg>
